<svg width="37" height="34" viewBox="0 0 37 34" fill="none" xmlns="http://www.w3.org/2000/svg">
<path d="M35.2504 7.78072L22.24 1.82702C20.8844 1.2157 19.7813 0.923322 18.6783 0.949904C17.5885 0.923322 16.4855 1.2157 15.1167 1.82702L2.11945 7.78072C1.26891 8.16619 0.856934 8.84389 0.856934 9.52171C0.856934 10.1994 1.26891 10.864 2.11945 11.2627L7.59477 13.7611L16.0071 9.81407C15.9274 9.72108 15.9007 9.61471 15.9007 9.52171C15.9007 8.68445 17.3095 8.04655 18.7314 8.04655C20.1667 8.04655 21.5489 8.68445 21.5489 9.52171C21.5489 10.3855 20.1667 11.0367 18.7314 11.0367C18.2929 11.0367 17.8544 10.9702 17.4689 10.864L9.44202 14.6249L15.1167 17.2297C16.4855 17.8542 17.5885 18.1201 18.6783 18.1068C19.7813 18.1201 20.8844 17.8542 22.24 17.2297L35.2504 11.2627C36.101 10.864 36.513 10.1994 36.513 9.52171C36.513 8.84389 36.101 8.16619 35.2504 7.78072ZM9.38887 16.5918V24.6719C11.6215 26.0274 14.811 26.8513 18.6783 26.8513C26.5192 26.8513 31.5692 23.4891 31.5692 19.5155V14.9438L22.9974 18.8643C21.4425 19.582 20.0339 19.9408 18.6783 19.9275C17.336 19.9408 15.914 19.582 14.3591 18.8643L9.38887 16.5918ZM5.80067 14.9438V19.5155C5.80067 20.6717 6.46515 22.1069 7.66121 23.3296V15.8077L5.80067 14.9438ZM7.66121 27.755H9.38887V24.6719C8.72438 24.2732 8.13965 23.8214 7.66121 23.3296V27.755ZM6.61134 27.8481V31.3433C6.61134 32.3932 7.28911 33.0709 8.33899 33.0709H8.6978C9.74768 33.0709 10.4255 32.3932 10.4255 31.3433V27.8481C10.4255 26.7982 9.74768 26.1204 8.6978 26.1204H8.33899C7.28911 26.1204 6.61134 26.7982 6.61134 27.8481Z" fill="#262626"/>
</svg>
